<?xml version="1.0" encoding="utf-8"?>
<!-- Generator: Adobe Illustrator 21.1.0, SVG Export Plug-In . SVG Version: 6.00 Build 0)  -->
<svg version="1.1" id="Layer_1" xmlns="http://www.w3.org/2000/svg" xmlns:xlink="http://www.w3.org/1999/xlink" x="0px" y="0px"
	 viewBox="0 0 409.6 409.6" style="enable-background:new 0 0 409.6 409.6;" xml:space="preserve">
<path d="M349.6,60C270.3-20.7,140.7-21.8,60,57.5s-81.8,208.9-2.5,289.6c0.8,0.8,1.7,1.7,2.5,2.5c80.7,79.3,210.3,78.2,289.6-2.5
	C427.9,267.4,427.9,139.7,349.6,60z M340.6,340.6c-75,75-196.6,75-271.6,0S-6,144,69,69c0,0,0,0,0,0c75-75,196.6-75,271.6,0
	S415.6,265.6,340.6,340.6L340.6,340.6z"/>
<path d="M344,92c-2.2-2.8-6.2-3.3-9-1.1c-2.8,2.2-3.3,6.2-1.1,9c0.1,0.1,0.1,0.1,0.2,0.2c57.7,71.5,46.6,176.3-24.9,234
	c-63.4,51.2-154.5,49-215.3-5.2c-2.6-2.4-6.7-2.1-9,0.5c-2.4,2.6-2.1,6.7,0.5,9c73.8,65.9,187.1,59.5,253-14.3
	C396.9,258.6,399.2,160.3,344,92z"/>
<path d="M38.4,204.8C38.4,113,113,38.4,204.8,38.4c40.9,0,80.4,15.1,110.9,42.4c2.6,2.4,6.7,2.1,9-0.5c2.4-2.6,2.1-6.7-0.5-9
	c-73.8-66-187.1-59.6-253,14.2c-58.6,65.5-61,163.9-5.7,232.2c2.3,2.7,6.3,3,9,0.8c2.6-2.2,3-6.1,0.9-8.8
	C51.5,279.9,38.4,242.9,38.4,204.8z"/>
<path d="M258.6,102.1H151.4c-27.2,0-49.3,22.1-49.3,49.3v107.2c0,27.2,22.1,49.3,49.3,49.3h107.2c27.2,0,49.3-22.1,49.3-49.3V151.4
	C307.8,124.2,285.8,102.2,258.6,102.1z M294.9,258.6c0,20-16.3,36.3-36.3,36.3H151.4c-20,0-36.3-16.3-36.3-36.3V151.4
	c0-20,16.3-36.3,36.3-36.3h107.2c20,0,36.3,16.3,36.3,36.3V258.6z"/>
<path d="M262.5,139.7c-4.4,0-7.9,3.5-7.9,7.9s3.5,7.9,7.9,7.9c4.4,0,7.9-3.5,7.9-7.9v0C270.4,143.3,266.9,139.7,262.5,139.7z"/>
<path d="M205,154.6c-27.9,0-50.4,22.6-50.4,50.4s22.6,50.4,50.4,50.4s50.4-22.6,50.4-50.4l0,0C255.4,177.2,232.8,154.6,205,154.6z
	 M205,242.5c-20.7,0-37.4-16.8-37.5-37.4c0-20.7,16.8-37.4,37.4-37.5c20.7,0,37.5,16.8,37.5,37.4C242.4,225.7,225.7,242.4,205,242.5
	L205,242.5z"/>
</svg>
